<svg xmlns="http://www.w3.org/2000/svg" width="99" height="23" fill="none"><g filter="url(#a)"><mask id="l" fill="#fff"><path d="M36.378 14.081h1.411V1.001L36.378 1v13.081Z"/><path fill-rule="evenodd" d="M46.541 14.082h-4.343c-1.805 0-2.904-1.076-2.904-2.896V7c0-1.819 1.099-2.895 2.904-2.895h1.648c1.785 0 2.884 1.076 2.884 2.895v2.778h-6.023v1.37c0 1.095.55 1.701 1.648 1.701h4.186v1.233Zm-5.834-5.34h4.63V7.038c0-1.095-.55-1.682-1.648-1.682h-1.334c-1.099 0-1.648.587-1.648 1.682v1.702ZM71.415 17.002h-1.438V4.108h4.71c1.794 0 2.819 1.08 2.819 2.909v4.206c0 1.828-1.025 2.91-2.819 2.91h-3.272v2.869Zm0-4.128h2.996c1.124 0 1.676-.61 1.676-1.71V7.076c0-1.1-.552-1.71-1.676-1.71h-2.996v7.508ZM79.013 17.002h1.439v-2.87h3.272c1.793 0 2.818-1.08 2.818-2.909V7.017c0-1.828-1.025-2.91-2.818-2.91h-4.711v12.895Zm4.435-4.128h-2.996V5.366h2.996c1.123 0 1.675.61 1.675 1.71v4.088c0 1.1-.552 1.71-1.675 1.71Z" clip-rule="evenodd"/><path d="M88.047 14.084h3.864c1.912 0 2.818-.763 2.818-2.465 0-1.232-.295-2.132-1.754-2.7l-2.326-1.036c-.67-.254-1.124-.587-1.124-1.252V6.3c0-.47.414-.978 1.44-.978h3.764V4.108h-4.021c-1.873 0-2.661.86-2.661 2.406 0 1.252.552 1.897 1.873 2.445l2.326.978c.749.293 1.005.802 1.005 1.428v.372c0 .782-.532 1.134-1.538 1.134h-3.666v1.213Z"/><path fill-rule="evenodd" d="M30.26 13.57c-1.785 0-2.825-1.078-2.825-2.9V7.005c0-1.822 1.099-2.9 2.903-2.9h4.532V14.1c0 1.803-1.098 2.9-2.903 2.9h-3.904v-1.273h3.727c1.118 0 1.648-.588 1.648-1.686v-.47H30.26Zm3.178-1.254V5.359h-2.923c-1.118 0-1.648.608-1.648 1.705v3.547c0 1.117.53 1.705 1.648 1.705h2.923ZM21.317 13.57h3.178v.47c0 1.098-.53 1.686-1.648 1.686H19.12v1.273h3.904c1.805 0 2.903-1.097 2.903-2.9V4.105h-4.531c-1.805 0-2.904 1.078-2.904 2.9v3.665c0 1.822 1.04 2.9 2.825 2.9Zm3.178-8.21v6.956h-2.923c-1.118 0-1.648-.588-1.648-1.705V7.064c0-1.097.53-1.705 1.648-1.705h2.923ZM14.07 14.082h-1.694c-1.814 0-2.918-1.076-2.918-2.896V7c0-1.819 1.104-2.895 2.918-2.895h1.695c1.813 0 2.917 1.076 2.917 2.895v4.187c0 1.819-1.104 2.895-2.917 2.895Zm-1.537-1.252h1.38c1.104 0 1.656-.587 1.656-1.683V7.04c0-1.095-.552-1.682-1.656-1.682h-1.38c-1.104 0-1.655.587-1.655 1.682v4.108c0 1.096.551 1.683 1.655 1.683Z" clip-rule="evenodd"/><path d="M4 1.847v9.394c0 1.81 1.187 2.842 2.988 2.842h1.247v-1.246H7.167c-1.109 0-1.742-.564-1.742-1.654V5.33h2.434V4.106H5.412V1.847H4Z"/></mask><g filter="url(#b)"><path fill="url(#c)" d="M36.378 14.081h1.411V1.001L36.378 1v13.081Z"/><path fill="url(#d)" fill-rule="evenodd" d="M46.541 14.082h-4.343c-1.805 0-2.904-1.076-2.904-2.896V7c0-1.819 1.099-2.895 2.904-2.895h1.648c1.785 0 2.884 1.076 2.884 2.895v2.778h-6.023v1.37c0 1.095.55 1.701 1.648 1.701h4.186v1.233Zm-5.834-5.34h4.63V7.038c0-1.095-.55-1.682-1.648-1.682h-1.334c-1.099 0-1.648.587-1.648 1.682v1.702Z" clip-rule="evenodd"/><path fill="url(#e)" fill-rule="evenodd" d="M71.415 17.002h-1.438V4.108h4.71c1.794 0 2.819 1.08 2.819 2.909v4.206c0 1.828-1.025 2.91-2.819 2.91h-3.272v2.869Zm0-4.128h2.996c1.124 0 1.676-.61 1.676-1.71V7.076c0-1.1-.552-1.71-1.676-1.71h-2.996v7.508Z" clip-rule="evenodd"/><path fill="url(#f)" fill-rule="evenodd" d="M79.013 17.002h1.439v-2.87h3.272c1.793 0 2.818-1.08 2.818-2.909V7.017c0-1.828-1.025-2.91-2.818-2.91h-4.711v12.895Zm4.435-4.128h-2.996V5.366h2.996c1.123 0 1.675.61 1.675 1.71v4.088c0 1.1-.552 1.71-1.675 1.71Z" clip-rule="evenodd"/><path fill="url(#g)" d="M88.047 14.084h3.864c1.912 0 2.818-.763 2.818-2.465 0-1.232-.295-2.132-1.754-2.7l-2.326-1.036c-.67-.254-1.124-.587-1.124-1.252V6.3c0-.47.414-.978 1.44-.978h3.764V4.108h-4.021c-1.873 0-2.661.86-2.661 2.406 0 1.252.552 1.897 1.873 2.445l2.326.978c.749.293 1.005.802 1.005 1.428v.372c0 .782-.532 1.134-1.538 1.134h-3.666v1.213Z"/><path fill="url(#h)" fill-rule="evenodd" d="M30.26 13.57c-1.785 0-2.825-1.078-2.825-2.9V7.005c0-1.822 1.099-2.9 2.903-2.9h4.532V14.1c0 1.803-1.098 2.9-2.903 2.9h-3.904v-1.273h3.727c1.118 0 1.648-.588 1.648-1.686v-.47H30.26Zm3.178-1.254V5.359h-2.923c-1.118 0-1.648.608-1.648 1.705v3.547c0 1.117.53 1.705 1.648 1.705h2.923Z" clip-rule="evenodd"/><path fill="url(#i)" fill-rule="evenodd" d="M21.317 13.57h3.178v.47c0 1.098-.53 1.686-1.648 1.686H19.12v1.273h3.904c1.805 0 2.903-1.097 2.903-2.9V4.105h-4.531c-1.805 0-2.904 1.078-2.904 2.9v3.665c0 1.822 1.04 2.9 2.825 2.9Zm3.178-8.21v6.956h-2.923c-1.118 0-1.648-.588-1.648-1.705V7.064c0-1.097.53-1.705 1.648-1.705h2.923Z" clip-rule="evenodd"/><path fill="url(#j)" fill-rule="evenodd" d="M14.07 14.082h-1.694c-1.814 0-2.918-1.076-2.918-2.896V7c0-1.819 1.104-2.895 2.918-2.895h1.695c1.813 0 2.917 1.076 2.917 2.895v4.187c0 1.819-1.104 2.895-2.917 2.895Zm-1.537-1.252h1.38c1.104 0 1.656-.587 1.656-1.683V7.04c0-1.095-.552-1.682-1.656-1.682h-1.38c-1.104 0-1.655.587-1.655 1.682v4.108c0 1.096.551 1.683 1.655 1.683Z" clip-rule="evenodd"/><path fill="url(#k)" d="M4 1.847v9.394c0 1.81 1.187 2.842 2.988 2.842h1.247v-1.246H7.167c-1.109 0-1.742-.564-1.742-1.654V5.33h2.434V4.106H5.412V1.847H4Z"/></g><path stroke="#fff" stroke-opacity=".2" stroke-width="2.729" d="M36.378 14.081h1.411V1.001L36.378 1v13.081Z" mask="url(#l)"/><path stroke="#fff" stroke-opacity=".2" stroke-width="2.729" d="M46.541 14.082h-4.343c-1.805 0-2.904-1.076-2.904-2.896V7c0-1.819 1.099-2.895 2.904-2.895h1.648c1.785 0 2.884 1.076 2.884 2.895v2.778h-6.023v1.37c0 1.095.55 1.701 1.648 1.701h4.186v1.233Zm-5.834-5.34h4.63V7.038c0-1.095-.55-1.682-1.648-1.682h-1.334c-1.099 0-1.648.587-1.648 1.682v1.702ZM71.415 17.002h-1.438V4.108h4.71c1.794 0 2.819 1.08 2.819 2.909v4.206c0 1.828-1.025 2.91-2.819 2.91h-3.272v2.869Zm0-4.128h2.996c1.124 0 1.676-.61 1.676-1.71V7.076c0-1.1-.552-1.71-1.676-1.71h-2.996v7.508ZM79.013 17.002h1.439v-2.87h3.272c1.793 0 2.818-1.08 2.818-2.909V7.017c0-1.828-1.025-2.91-2.818-2.91h-4.711v12.895Zm4.435-4.128h-2.996V5.366h2.996c1.123 0 1.675.61 1.675 1.71v4.088c0 1.1-.552 1.71-1.675 1.71Z" clip-rule="evenodd" mask="url(#l)"/><path stroke="#fff" stroke-opacity=".2" stroke-width="2.729" d="M88.047 14.084h3.864c1.912 0 2.818-.763 2.818-2.465 0-1.232-.295-2.132-1.754-2.7l-2.326-1.036c-.67-.254-1.124-.587-1.124-1.252V6.3c0-.47.414-.978 1.44-.978h3.764V4.108h-4.021c-1.873 0-2.661.86-2.661 2.406 0 1.252.552 1.897 1.873 2.445l2.326.978c.749.293 1.005.802 1.005 1.428v.372c0 .782-.532 1.134-1.538 1.134h-3.666v1.213Z" mask="url(#l)"/><path stroke="#fff" stroke-opacity=".2" stroke-width="2.729" d="M30.26 13.57c-1.785 0-2.825-1.078-2.825-2.9V7.005c0-1.822 1.099-2.9 2.903-2.9h4.532V14.1c0 1.803-1.098 2.9-2.903 2.9h-3.904v-1.273h3.727c1.118 0 1.648-.588 1.648-1.686v-.47H30.26Zm3.178-1.254V5.359h-2.923c-1.118 0-1.648.608-1.648 1.705v3.547c0 1.117.53 1.705 1.648 1.705h2.923ZM21.317 13.57h3.178v.47c0 1.098-.53 1.686-1.648 1.686H19.12v1.273h3.904c1.805 0 2.903-1.097 2.903-2.9V4.105h-4.531c-1.805 0-2.904 1.078-2.904 2.9v3.665c0 1.822 1.04 2.9 2.825 2.9Zm3.178-8.21v6.956h-2.923c-1.118 0-1.648-.588-1.648-1.705V7.064c0-1.097.53-1.705 1.648-1.705h2.923ZM14.07 14.082h-1.694c-1.814 0-2.918-1.076-2.918-2.896V7c0-1.819 1.104-2.895 2.918-2.895h1.695c1.813 0 2.917 1.076 2.917 2.895v4.187c0 1.819-1.104 2.895-2.917 2.895Zm-1.537-1.252h1.38c1.104 0 1.656-.587 1.656-1.683V7.04c0-1.095-.552-1.682-1.656-1.682h-1.38c-1.104 0-1.655.587-1.655 1.682v4.108c0 1.096.551 1.683 1.655 1.683Z" clip-rule="evenodd" mask="url(#l)"/><path stroke="#fff" stroke-opacity=".2" stroke-width="2.729" d="M4 1.847v9.394c0 1.81 1.187 2.842 2.988 2.842h1.247v-1.246H7.167c-1.109 0-1.742-.564-1.742-1.654V5.33h2.434V4.106H5.412V1.847H4Z" mask="url(#l)"/><path fill="url(#m)" fill-rule="evenodd" d="M52 9.18c0-2.755 2.246-4.989 5.018-4.989h6.248c2.876 0 5.207 2.318 5.207 5.178v4.8H57.018C54.246 14.17 52 11.936 52 9.18Zm4.987 3.576a3.577 3.577 0 1 0 0-7.154 3.577 3.577 0 0 0 0 7.154Z" clip-rule="evenodd"/></g><defs><linearGradient id="c" x1="49.365" x2="49.365" y1="-1" y2="17.002" gradientUnits="userSpaceOnUse"><stop stop-color="#fff"/><stop offset=".85" stop-color="#fff" stop-opacity=".2"/></linearGradient><linearGradient id="d" x1="49.365" x2="49.365" y1="-1" y2="17.002" gradientUnits="userSpaceOnUse"><stop stop-color="#fff"/><stop offset=".85" stop-color="#fff" stop-opacity=".2"/></linearGradient><linearGradient id="e" x1="49.365" x2="49.365" y1="-1" y2="17.002" gradientUnits="userSpaceOnUse"><stop stop-color="#fff"/><stop offset=".85" stop-color="#fff" stop-opacity=".2"/></linearGradient><linearGradient id="f" x1="49.365" x2="49.365" y1="-1" y2="17.002" gradientUnits="userSpaceOnUse"><stop stop-color="#fff"/><stop offset=".85" stop-color="#fff" stop-opacity=".2"/></linearGradient><linearGradient id="g" x1="49.365" x2="49.365" y1="-1" y2="17.002" gradientUnits="userSpaceOnUse"><stop stop-color="#fff"/><stop offset=".85" stop-color="#fff" stop-opacity=".2"/></linearGradient><linearGradient id="h" x1="49.365" x2="49.365" y1="-1" y2="17.002" gradientUnits="userSpaceOnUse"><stop stop-color="#fff"/><stop offset=".85" stop-color="#fff" stop-opacity=".2"/></linearGradient><linearGradient id="i" x1="49.365" x2="49.365" y1="-1" y2="17.002" gradientUnits="userSpaceOnUse"><stop stop-color="#fff"/><stop offset=".85" stop-color="#fff" stop-opacity=".2"/></linearGradient><linearGradient id="j" x1="49.365" x2="49.365" y1="-1" y2="17.002" gradientUnits="userSpaceOnUse"><stop stop-color="#fff"/><stop offset=".85" stop-color="#fff" stop-opacity=".2"/></linearGradient><linearGradient id="k" x1="49.365" x2="49.365" y1="-1" y2="17.002" gradientUnits="userSpaceOnUse"><stop stop-color="#fff"/><stop offset=".85" stop-color="#fff" stop-opacity=".2"/></linearGradient><linearGradient id="m" x1="60.237" x2="60.237" y1="-.668" y2="14.169" gradientUnits="userSpaceOnUse"><stop stop-color="#fff"/><stop offset="1" stop-color="#fff" stop-opacity=".3"/></linearGradient><filter id="a" width="97.847" height="22.849" x=".576" y=".144" color-interpolation-filters="sRGB" filterUnits="userSpaceOnUse"><feFlood flood-opacity="0" result="BackgroundImageFix"/><feColorMatrix in="SourceAlpha" result="hardAlpha" values="0 0 0 0 0 0 0 0 0 0 0 0 0 0 0 0 0 0 127 0"/><feOffset dy="2.568"/><feGaussianBlur stdDeviation="1.712"/><feComposite in2="hardAlpha" operator="out"/><feColorMatrix values="0 0 0 0 0 0 0 0 0 0 0 0 0 0 0 0 0 0 0.25 0"/><feBlend in2="BackgroundImageFix" result="effect1_dropShadow_2_3573"/><feBlend in="SourceGraphic" in2="effect1_dropShadow_2_3573" result="shape"/></filter><filter id="b" width="90.729" height="16.506" x="4" y="1" color-interpolation-filters="sRGB" filterUnits="userSpaceOnUse"><feFlood flood-opacity="0" result="BackgroundImageFix"/><feBlend in="SourceGraphic" in2="BackgroundImageFix" result="shape"/><feColorMatrix in="SourceAlpha" result="hardAlpha" values="0 0 0 0 0 0 0 0 0 0 0 0 0 0 0 0 0 0 127 0"/><feOffset dy=".504"/><feGaussianBlur stdDeviation=".504"/><feComposite in2="hardAlpha" k2="-1" k3="1" operator="arithmetic"/><feColorMatrix values="0 0 0 0 1 0 0 0 0 1 0 0 0 0 1 0 0 0 0.25 0"/><feBlend in2="shape" result="effect1_innerShadow_2_3573"/><feColorMatrix in="SourceAlpha" result="hardAlpha" values="0 0 0 0 0 0 0 0 0 0 0 0 0 0 0 0 0 0 127 0"/><feOffset/><feGaussianBlur stdDeviation=".189"/><feComposite in2="hardAlpha" k2="-1" k3="1" operator="arithmetic"/><feColorMatrix values="0 0 0 0 1 0 0 0 0 1 0 0 0 0 1 0 0 0 0.4 0"/><feBlend in2="effect1_innerShadow_2_3573" result="effect2_innerShadow_2_3573"/></filter></defs></svg>